<svg xmlns="http://www.w3.org/2000/svg" viewBox="0 0 24 24">
    <path d="M24 8.18l-.02-.08-.02-.05c0-.03-.01-.06-.03-.08l-.02-.05-.03-.07-.03-.05-.04-.06-.05-.04-.06-.05-.05-.03-.06-.04-.04-.04-.01-.02L12.57.19c-.35-.23-.8-.23-1.14 0L.45 7.5l-.01.02-.05.03-.06.05-.03.04-.05.06-.04.04-.05.06c-.02.02-.03.03-.03.05l-.05.06-.02.06c-.02 0-.02.04-.03.07l-.01.05C0 8.12 0 8.15 0 8.18v7.5l.01.13.01.05.02.08.01.05.03.08.02.05.03.06.03.04c.02 0 .03.04.05.06l.03.04.04.04c0 .01 0 .03.03.03l.06.04.04.03v.01L11.4 23.8c.16.12.37.17.57.17s.39-.06.57-.18l10.99-7.28.01-.01.05-.04.06-.04.05-.04.05-.06.03-.04.04-.06.03-.05.03-.07.02-.05.03-.08.01-.05.03-.08v-7.5l-.01-.14-.02-.04h.05zm-11.99 6.28l-3.65-2.44 3.65-2.44 3.65 2.44-3.65 2.44zM10.98 7.8L6.5 10.78 2.9 8.36l8.09-5.39V7.8zm-6.33 4.23l-2.59 1.73V10.3l2.59 1.73zm1.85 1.25l4.48 3v4.81L2.89 15.7l3.62-2.42zm6.54 3l4.47-2.99 3.62 2.42-8.09 5.4v-4.83zm6.33-4.24l2.58-1.72v3.46l-2.58-1.73zm-1.86-1.24L13.04 7.8V2.97l8.09 5.39-3.61 2.42z"/>
</svg>
