<svg xmlns="http://www.w3.org/2000/svg" viewBox="0 0 24 24">
  <path d="M9.216.437l2.874 8.481c.13.026.257.061.38.104l2.858-5.778 2.849 5.812a2.91 2.91 0 0 1 .365-.113L21.426.437H9.216zm2.297 9.581c-.987 0-1.79.803-1.79 1.79s.803 1.79 1.79 1.79 1.79-.803 1.79-1.79-.803-1.79-1.79-1.79zm7.716 0c-.987 0-1.79.803-1.79 1.79s.803 1.79 1.79 1.79 1.79-.803 1.79-1.79-.803-1.79-1.79-1.79zm-15.46.017c-.988 0-1.79.803-1.79 1.79s.802 1.79 1.79 1.79c.987 0 1.79-.803 1.79-1.79s-.803-1.79-1.79-1.79zm10.69 1.79a2.95 2.95 0 0 1-3.387 2.897A10.977 10.977 0 0 1 9.33 16.83c-1.051.991-2.236 1.726-3.522 2.184l-.236.084-.222-.114c-1.627-.836-2.402-2.604-1.91-4.23a2.922 2.922 0 0 1-.76-.192c-.08.168-.162.336-.246.508-.484.995-.985 2.023-1.17 3.14-.2 1.205-.279 3.404 1.436 4.592 2.341 1.623 4.824.39 7.7-1.038 1.436-.714 2.922-1.452 4.456-1.83.58-.143 1.174-.229 1.748-.312 1.072-.154 2.084-.3 2.929-.79a3.471 3.471 0 0 0 1.7-2.404 3.596 3.596 0 0 0-.323-2.201 2.93 2.93 0 0 1-1.68.528 2.95 2.95 0 0 1-2.946-2.904l-1.823-.026z"/>
</svg>
