<svg xmlns="http://www.w3.org/2000/svg" viewBox="0 0 24 24">
    <path d="M.5 13.5S.5 9.2 2 6.3s5-5 5-5h.7s3.6-.8 6.5 1.4a6.6 6.6 0 0 1 3.6 5v5s0-3.5-2.2-5.7c-2.1-1.4-4.3-2.2-7.2-2.2S3.4 7 3.4 7L2 9.9.5 13.5zm23-2.9s0 4.3-1.4 7.2-5 5-5 5h-.7s-3.6.8-6.5-1.4a6.6 6.6 0 0 1-3.6-5v-5s0 3.5 2.1 5.7c2.2 1.4 4.4 2.1 7.2 2.1s5-2.1 5-2.1l1.5-2.9 1.5-3.6zM10.7.6s4.3 0 7.2 1.4 5 5 5 5v.7s0 3.6-1.4 6.5-4.3 3.6-5 3.6h-5s3.5 0 5.7-2.2c1.4-2.1 2.1-4.3 2.1-7.2s-2.8-5-2.8-5S15.6 2 14.2 2L10.6.5zm2.9 23s-4.3 0-7.2-1.5-5-5-5-5v-.7s-.8-3.6 1.4-6.5a6.6 6.6 0 0 1 5-3.6h5S9.3 6.3 7 8.4a12.2 12.2 0 0 0-2.2 7.2 8.6 8.6 0 0 0 5 6.5l3.7 1.5zM15.6 12a3.6 3.6 0 0 1-3.6 3.6A3.6 3.6 0 0 1 9.2 12 3.6 3.6 0 0 1 12 9.2a3.6 3.6 0 0 1 3.6 2.8z"/>
</svg>
