<svg xmlns="http://www.w3.org/2000/svg" viewBox="0 0 24 24">
    <path d="M0 12.02v11.97h23.94V.05H0v11.97zm19.3-.95c.6.15 1.06.42 1.49.86.22.23.55.66.57.77.01.03-1.03.73-1.66 1.12-.02.01-.11-.09-.22-.24-.3-.45-.63-.64-1.12-.67-.73-.05-1.2.33-1.2.96 0 .19.03.3.11.45.16.33.46.53 1.39.93 1.71.74 2.45 1.22 2.9 1.92.51.77.62 2 .28 2.91-.38 1-1.32 1.68-2.65 1.9-.41.07-1.38.06-1.82-.02a4.4 4.4 0 01-2.44-1.27 4.23 4.23 0 01-.62-.92 218.85 218.85 0 001.11-.65l.68-.4.15.2c.2.32.64.74.9.88.77.4 1.82.34 2.34-.12.22-.2.3-.41.3-.72 0-.27-.03-.4-.17-.6-.19-.27-.57-.5-1.65-.96A5.92 5.92 0 0115.72 16c-.28-.3-.55-.79-.66-1.2a4.8 4.8 0 01-.04-1.52c.26-1.2 1.16-2.03 2.46-2.28.42-.08 1.4-.05 1.81.06zm-5.63 1l.01.98h-3.12v8.85h-2.2v-8.85H5.24v-.97c0-.53.02-.97.03-.98.01-.02 1.9-.03 4.2-.02h4.2v.99z"/>
</svg>